<svg version="1.1" id="Layer_1" xmlns="http://www.w3.org/2000/svg" xmlns:xlink="http://www.w3.org/1999/xlink" x="0px" y="0px"
	 width="100%" viewBox="0 0 200 200" enable-background="new 0 0 200 200" xml:space="preserve">
<path fill="#FEFEFE" opacity="1.000000" stroke="none" 
	d="
M123.000000,201.000000 
	C82.025322,201.000000 41.550652,201.000000 1.037988,201.000000 
	C1.037988,134.400360 1.037988,67.800705 1.037988,1.100519 
	C67.557831,1.100519 134.115875,1.100519 200.836945,1.100519 
	C200.836945,67.666344 200.836945,134.333145 200.836945,201.000000 
	C175.134323,201.000000 149.317154,201.000000 123.000000,201.000000 
M106.502060,17.859056 
	C98.855583,18.380230 91.013199,17.985619 83.594749,19.572672 
	C38.764839,29.163284 10.556244,72.172783 19.124540,117.212440 
	C27.524067,161.364960 70.336014,190.637634 115.472137,183.090118 
	C157.023102,176.142120 186.186142,139.027344 184.143768,95.694191 
	C182.221786,54.915646 148.553635,20.774240 106.502060,17.859056 
z"/>
<path fill="#176661" opacity="1.000000" stroke="none" 
	d="
M106.965439,17.879980 
	C148.553635,20.774240 182.221786,54.915646 184.143768,95.694191 
	C186.186142,139.027344 157.023102,176.142120 115.472137,183.090118 
	C70.336014,190.637634 27.524067,161.364960 19.124540,117.212440 
	C10.556244,72.172783 38.764839,29.163284 83.594749,19.572672 
	C91.013199,17.985619 98.855583,18.380230 106.965439,17.879980 
M145.128708,133.329865 
	C151.747025,134.874176 152.785767,134.054871 152.786407,127.277740 
	C152.787720,113.284744 152.663101,99.289948 152.865829,85.299896 
	C152.922760,81.370743 151.515228,79.636818 147.744080,78.812714 
	C139.294586,76.966248 130.865585,74.966209 122.543259,72.620590 
	C117.727020,71.263145 113.162827,70.935242 108.464554,72.760803 
	C91.496758,79.353806 74.590675,79.505112 57.768578,72.192192 
	C57.167484,71.930885 56.451633,71.942940 55.833099,71.710793 
	C52.341179,70.400238 50.903698,71.590309 50.921040,75.305107 
	C50.993351,90.797073 50.854904,106.291054 51.096848,121.779572 
	C51.120827,123.314644 52.904770,125.621483 54.395348,126.184723 
	C58.888714,127.882591 63.818558,128.459198 68.255501,130.265656 
	C78.314789,134.361160 88.256119,134.394928 98.278366,130.534821 
	C110.084625,125.987617 121.817558,126.048111 133.664673,130.482040 
	C137.066788,131.755341 140.752106,132.271942 145.128708,133.329865 
z"/>
<path fill="#F3F7F7" opacity="1.000000" stroke="none" 
	d="
M144.718140,133.232666 
	C140.752106,132.271942 137.066788,131.755341 133.664673,130.482040 
	C121.817558,126.048111 110.084625,125.987617 98.278366,130.534821 
	C88.256119,134.394928 78.314789,134.361160 68.255501,130.265656 
	C63.818558,128.459198 58.888714,127.882591 54.395348,126.184723 
	C52.904770,125.621483 51.120827,123.314644 51.096848,121.779572 
	C50.854904,106.291054 50.993351,90.797073 50.921040,75.305107 
	C50.903698,71.590309 52.341179,70.400238 55.833099,71.710793 
	C56.451633,71.942940 57.167484,71.930885 57.768578,72.192192 
	C74.590675,79.505112 91.496758,79.353806 108.464554,72.760803 
	C113.162827,70.935242 117.727020,71.263145 122.543259,72.620590 
	C130.865585,74.966209 139.294586,76.966248 147.744080,78.812714 
	C151.515228,79.636818 152.922760,81.370743 152.865829,85.299896 
	C152.663101,99.289948 152.787720,113.284744 152.786407,127.277740 
	C152.785767,134.054871 151.747025,134.874176 144.718140,133.232666 
M57.831329,81.500244 
	C57.879578,81.668648 57.927822,81.837044 57.762024,82.921402 
	C57.833672,95.279419 57.905319,107.637436 57.955162,120.603920 
	C58.308823,120.751816 58.662483,120.899719 59.600212,121.508614 
	C66.585358,123.466774 73.570503,125.424927 80.777084,127.445160 
	C80.777084,112.730522 80.777084,98.628334 80.777084,84.299194 
	C73.215355,82.132790 65.777382,80.001846 57.811867,77.719757 
	C57.889580,79.156555 57.939407,80.077774 57.831329,81.500244 
M112.682327,80.164986 
	C111.937096,79.486023 111.018364,78.100403 110.472717,78.234367 
	C102.618034,80.162773 94.813545,82.295631 87.156570,84.336868 
	C87.156570,98.909203 87.156570,112.985847 87.156570,127.708740 
	C95.383209,125.405060 103.189690,123.219040 111.816399,120.930290 
	C112.089523,120.386246 112.601921,119.841667 112.600708,119.298233 
	C112.572021,106.497620 112.487946,93.697121 112.682327,80.164986 
M122.681999,78.195946 
	C122.125183,78.165443 121.568375,78.134941 120.351799,78.279091 
	C120.335724,79.170807 120.319656,80.062515 120.161514,81.887154 
	C120.215721,94.582092 120.269920,107.277039 120.305862,120.592659 
	C120.873093,120.765495 121.440323,120.938332 122.656715,121.493385 
	C130.288498,123.484726 137.920273,125.476067 145.788788,127.529175 
	C145.788788,112.728813 145.788788,98.645035 145.788788,84.198959 
	C138.783066,82.459770 131.889771,80.748489 124.431610,78.723106 
	C124.010277,78.647369 123.588936,78.571625 122.681999,78.195946 
z"/>
<path fill="#186661" opacity="1.000000" stroke="none" 
	d="
M120.324127,119.971977 
	C120.269920,107.277039 120.215721,94.582092 120.436890,81.195770 
	C120.812035,79.704407 120.911797,78.904419 121.011559,78.104439 
	C121.568375,78.134941 122.125183,78.165443 122.963654,78.630898 
	C123.829025,79.056305 124.412750,79.046753 124.996475,79.037216 
	C131.889771,80.748489 138.783066,82.459770 145.788788,84.198959 
	C145.788788,98.645035 145.788788,112.728813 145.788788,127.529175 
	C137.920273,125.476067 130.288498,123.484726 122.207466,121.061569 
	C121.280190,120.410492 120.802155,120.191238 120.324127,119.971977 
z"/>
<path fill="#1B6863" opacity="1.000000" stroke="none" 
	d="
M110.996178,121.033020 
	C103.189690,123.219040 95.383209,125.405060 87.156570,127.708740 
	C87.156570,112.985847 87.156570,98.909203 87.156570,84.336868 
	C94.813545,82.295631 102.618034,80.162773 110.472717,78.234367 
	C111.018364,78.100403 111.937096,79.486023 112.263458,80.439026 
	C111.562134,82.179031 111.042816,83.643669 111.034630,85.111160 
	C110.967850,97.084816 110.996529,109.058998 110.996178,121.033020 
z"/>
<path fill="#186661" opacity="1.000000" stroke="none" 
	d="
M57.976967,119.995453 
	C57.905319,107.637436 57.833672,95.279419 58.037678,82.373657 
	C58.381287,81.719734 58.529713,81.550789 58.503929,81.517746 
	C58.355160,81.327042 58.165222,81.168465 57.989235,80.999001 
	C57.939407,80.077774 57.889580,79.156555 57.811867,77.719757 
	C65.777382,80.001846 73.215355,82.132790 80.777084,84.299194 
	C80.777084,98.628334 80.777084,112.730522 80.777084,127.445160 
	C73.570503,125.424927 66.585358,123.466774 59.197071,121.047455 
	C58.521610,120.389343 58.249290,120.192398 57.976967,119.995453 
z"/>
<path fill="#045E54" opacity="1.000000" stroke="none" 
	d="
M111.406288,120.981659 
	C110.996529,109.058998 110.967850,97.084816 111.034630,85.111160 
	C111.042816,83.643669 111.562134,82.179031 112.129303,80.804840 
	C112.487946,93.697121 112.572021,106.497620 112.600708,119.298233 
	C112.601921,119.841667 112.089523,120.386246 111.406288,120.981659 
z"/>
<path fill="#287069" opacity="1.000000" stroke="none" 
	d="
M120.681679,78.191765 
	C120.911797,78.904419 120.812035,79.704407 120.507935,80.729309 
	C120.319656,80.062515 120.335724,79.170807 120.681679,78.191765 
z"/>
<path fill="#287069" opacity="1.000000" stroke="none" 
	d="
M124.714043,78.880157 
	C124.412750,79.046753 123.829025,79.056305 123.206451,78.780869 
	C123.588936,78.571625 124.010277,78.647369 124.714043,78.880157 
z"/>
<path fill="#287069" opacity="1.000000" stroke="none" 
	d="
M120.314995,120.282318 
	C120.802155,120.191238 121.280190,120.410492 121.882889,120.870461 
	C121.440323,120.938332 120.873093,120.765495 120.314995,120.282318 
z"/>
<path fill="#0D5D52" opacity="1.000000" stroke="none" 
	d="
M57.910282,81.249619 
	C58.165222,81.168465 58.355160,81.327042 58.503929,81.517746 
	C58.529713,81.550789 58.381287,81.719734 58.144699,81.915680 
	C57.927822,81.837044 57.879578,81.668648 57.910282,81.249619 
z"/>
<path fill="#0D5D52" opacity="1.000000" stroke="none" 
	d="
M57.966064,120.299683 
	C58.249290,120.192398 58.521610,120.389343 58.905037,120.816956 
	C58.662483,120.899719 58.308823,120.751816 57.966064,120.299683 
z"/>
</svg>